<svg xmlns="http://www.w3.org/2000/svg" width="80.36" height="35" viewBox="0 0 80.36 35"><rect class="svg__rect" x="0" y="0" width="0" height="35" fill="#DF7284"/><rect class="svg__rect" x="0" y="0" width="80.36" height="35" fill="#FFFFFF"/><path class="svg__text" d="" fill="#FFFFFF"/><path class="svg__text" d="M18.73 22L14.19 22L14.19 13.60L18.49 13.60Q20.09 13.60 20.93 14.19Q21.78 14.79 21.78 15.79L21.78 15.79Q21.78 16.39 21.48 16.87Q21.18 17.34 20.64 17.62L20.64 17.62Q21.37 17.87 21.77 18.41Q22.18 18.94 22.18 19.70L22.18 19.70Q22.18 20.80 21.29 21.40Q20.40 22 18.73 22L18.73 22ZM16.54 18.58L16.54 20.28L18.54 20.28Q19.78 20.28 19.78 19.43L19.78 19.43Q19.78 18.58 18.54 18.58L18.54 18.58L16.54 18.58ZM16.54 15.31L16.54 16.94L18.17 16.94Q19.37 16.94 19.37 16.12L19.37 16.12Q19.37 15.31 18.17 15.31L18.17 15.31L16.54 15.31ZM31.44 22L26.90 22L26.90 13.60L31.20 13.60Q32.80 13.60 33.64 14.19Q34.48 14.79 34.48 15.79L34.48 15.79Q34.48 16.39 34.19 16.87Q33.89 17.34 33.35 17.62L33.35 17.62Q34.07 17.87 34.48 18.41Q34.89 18.94 34.89 19.70L34.89 19.70Q34.89 20.80 34.00 21.40Q33.11 22 31.44 22L31.44 22ZM29.25 18.58L29.25 20.28L31.24 20.28Q32.49 20.28 32.49 19.43L32.49 19.43Q32.49 18.58 31.24 18.58L31.24 18.58L29.25 18.58ZM29.25 15.31L29.25 16.94L30.88 16.94Q32.08 16.94 32.08 16.12L32.08 16.12Q32.08 15.31 30.88 15.31L30.88 15.31L29.25 15.31ZM39.09 20.75L39.09 20.75Q39.09 20.15 39.48 19.78Q39.87 19.41 40.46 19.41L40.46 19.41Q41.06 19.41 41.44 19.78Q41.83 20.15 41.83 20.75L41.83 20.75Q41.83 21.34 41.44 21.72Q41.05 22.11 40.46 22.11L40.46 22.11Q39.88 22.11 39.49 21.72Q39.09 21.34 39.09 20.75ZM50.46 22L46.48 22L46.48 13.60L50.46 13.60Q51.84 13.60 52.91 14.12Q53.97 14.63 54.56 15.58Q55.15 16.53 55.15 17.80L55.15 17.80Q55.15 19.07 54.56 20.02Q53.97 20.97 52.91 21.48Q51.84 22 50.46 22L50.46 22ZM48.86 15.50L48.86 20.10L50.36 20.10Q51.44 20.10 52.10 19.49Q52.75 18.88 52.75 17.80L52.75 17.80Q52.75 16.72 52.10 16.11Q51.44 15.50 50.36 15.50L50.36 15.50L48.86 15.50ZM63.85 22L59.88 22L59.88 13.60L63.85 13.60Q65.23 13.60 66.30 14.12Q67.37 14.63 67.96 15.58Q68.55 16.53 68.55 17.80L68.55 17.80Q68.55 19.07 67.96 20.02Q67.37 20.97 66.30 21.48Q65.23 22 63.85 22L63.85 22ZM62.26 15.50L62.26 20.10L63.76 20.10Q64.84 20.10 65.49 19.49Q66.14 18.88 66.14 17.80L66.14 17.80Q66.14 16.72 65.49 16.11Q64.84 15.50 63.76 15.50L63.76 15.50L62.26 15.50Z" fill="#9C2236" x="39"/></svg>