<svg xmlns="http://www.w3.org/2000/svg" width="179.25" height="35" viewBox="0 0 179.25 35"><rect class="svg__rect" x="0" y="0" width="0" height="35" fill="#DF7284"/><rect class="svg__rect" x="0" y="0" width="179.25" height="35" fill="#FFFFFF"/><path class="svg__text" d="" fill="#FFFFFF"/><path class="svg__text" d="M13.76 17.80L13.76 17.80Q13.76 16.54 14.36 15.54Q14.96 14.55 16.01 13.99Q17.06 13.43 18.38 13.43L18.38 13.43Q19.53 13.43 20.45 13.84Q21.38 14.25 21.99 15.02L21.99 15.02L20.48 16.39Q19.67 15.40 18.50 15.40L18.50 15.40Q17.81 15.40 17.28 15.70Q16.75 16 16.45 16.54Q16.16 17.09 16.16 17.80L16.16 17.80Q16.16 18.51 16.45 19.05Q16.75 19.60 17.28 19.90Q17.81 20.20 18.50 20.20L18.50 20.20Q19.67 20.20 20.48 19.22L20.48 19.22L21.99 20.58Q21.38 21.35 20.46 21.76Q19.53 22.17 18.38 22.17L18.38 22.17Q17.06 22.17 16.01 21.61Q14.96 21.05 14.36 20.05Q13.76 19.06 13.76 17.80ZM28.65 18.95L25.45 13.60L27.96 13.60L29.95 16.94L31.94 13.60L34.24 13.60L31.03 18.99L31.03 22L28.65 22L28.65 18.95ZM37.90 17.80L37.90 17.80Q37.90 16.54 38.50 15.54Q39.10 14.55 40.15 13.99Q41.20 13.43 42.52 13.43L42.52 13.43Q43.67 13.43 44.60 13.84Q45.52 14.25 46.13 15.02L46.13 15.02L44.62 16.39Q43.81 15.40 42.64 15.40L42.64 15.40Q41.96 15.40 41.42 15.70Q40.89 16 40.59 16.54Q40.30 17.09 40.30 17.80L40.30 17.80Q40.30 18.51 40.59 19.05Q40.89 19.60 41.42 19.90Q41.96 20.20 42.64 20.20L42.64 20.20Q43.81 20.20 44.62 19.22L44.62 19.22L46.13 20.58Q45.52 21.35 44.60 21.76Q43.67 22.17 42.52 22.17L42.52 22.17Q41.20 22.17 40.15 21.61Q39.10 21.05 38.50 20.05Q37.90 19.06 37.90 17.80ZM57.06 22L50.67 22L50.67 13.60L53.05 13.60L53.05 20.11L57.06 20.11L57.06 22ZM68.22 22L61.47 22L61.47 13.60L68.06 13.60L68.06 15.44L63.83 15.44L63.83 16.85L67.56 16.85L67.56 18.63L63.83 18.63L63.83 20.17L68.22 20.17L68.22 22ZM79.41 21.24L79.41 21.24L80.19 19.49Q80.75 19.86 81.49 20.09Q82.24 20.32 82.96 20.32L82.96 20.32Q84.32 20.32 84.33 19.64L84.33 19.64Q84.33 19.28 83.94 19.11Q83.55 18.93 82.68 18.74L82.68 18.74Q81.73 18.53 81.10 18.30Q80.46 18.06 80.01 17.55Q79.56 17.03 79.56 16.16L79.56 16.16Q79.56 15.39 79.97 14.77Q80.39 14.15 81.23 13.79Q82.06 13.43 83.27 13.43L83.27 13.43Q84.10 13.43 84.90 13.62Q85.71 13.80 86.32 14.17L86.32 14.17L85.59 15.93Q84.39 15.28 83.26 15.28L83.26 15.28Q82.55 15.28 82.23 15.49Q81.90 15.70 81.90 16.04L81.90 16.04Q81.90 16.37 82.29 16.54Q82.67 16.71 83.52 16.89L83.52 16.89Q84.48 17.10 85.11 17.33Q85.74 17.56 86.21 18.07Q86.67 18.58 86.67 19.46L86.67 19.46Q86.67 20.21 86.25 20.83Q85.83 21.44 84.99 21.80Q84.15 22.17 82.95 22.17L82.95 22.17Q81.93 22.17 80.97 21.92Q80.01 21.67 79.41 21.24ZM91.17 18.26L91.17 18.26L91.17 13.60L93.55 13.60L93.55 18.19Q93.55 20.20 95.15 20.20L95.15 20.20Q96.73 20.20 96.73 18.19L96.73 18.19L96.73 13.60L99.07 13.60L99.07 18.26Q99.07 20.13 98.03 21.15Q96.99 22.17 95.12 22.17L95.12 22.17Q93.25 22.17 92.21 21.15Q91.17 20.13 91.17 18.26ZM106.36 22L104.16 22L104.16 13.60L106.12 13.60L109.07 18.45L111.95 13.60L113.90 13.60L113.93 22L111.75 22L111.72 17.55L109.56 21.17L108.51 21.17L106.36 17.67L106.36 22ZM121.29 22L119.09 22L119.09 13.60L121.05 13.60L124.00 18.45L126.88 13.60L128.83 13.60L128.86 22L126.68 22L126.65 17.55L124.49 21.17L123.44 21.17L121.29 17.67L121.29 22ZM135.44 22L133.01 22L136.72 13.60L139.06 13.60L142.78 22L140.31 22L139.65 20.37L136.10 20.37L135.44 22ZM137.87 15.93L136.79 18.61L138.95 18.61L137.87 15.93ZM149.31 22L146.93 22L146.93 13.60L150.78 13.60Q151.92 13.60 152.76 13.98Q153.59 14.35 154.05 15.06Q154.51 15.76 154.51 16.71L154.51 16.71Q154.51 17.62 154.08 18.30Q153.65 18.98 152.86 19.36L152.86 19.36L154.67 22L152.13 22L150.61 19.77L149.31 19.77L149.31 22ZM149.31 15.47L149.31 17.93L150.63 17.93Q151.36 17.93 151.73 17.61Q152.11 17.29 152.11 16.71L152.11 16.71Q152.11 16.12 151.73 15.79Q151.36 15.47 150.63 15.47L150.63 15.47L149.31 15.47ZM161.42 18.95L158.22 13.60L160.72 13.60L162.72 16.94L164.71 13.60L167.01 13.60L163.80 18.99L163.80 22L161.42 22L161.42 18.95Z" fill="#9C2236" x="39"/></svg>