<svg xmlns="http://www.w3.org/2000/svg" width="165.36" height="35" viewBox="0 0 165.36 35"><rect class="svg__rect" x="0" y="0" width="0" height="35" fill="#DF7284"/><rect class="svg__rect" x="0" y="0" width="165.36" height="35" fill="#FFFFFF"/><path class="svg__text" d="" fill="#FFFFFF"/><path class="svg__text" d="M18.16 22L14.19 22L14.19 13.60L18.16 13.60Q19.54 13.60 20.61 14.12Q21.68 14.63 22.27 15.58Q22.85 16.53 22.85 17.80L22.85 17.80Q22.85 19.07 22.27 20.02Q21.68 20.97 20.61 21.48Q19.54 22 18.16 22L18.16 22ZM16.57 15.50L16.57 20.10L18.07 20.10Q19.14 20.10 19.80 19.49Q20.45 18.88 20.45 17.80L20.45 17.80Q20.45 16.72 19.80 16.11Q19.14 15.50 18.07 15.50L18.07 15.50L16.57 15.50ZM29.96 22L27.58 22L27.58 13.60L29.96 13.60L29.96 22ZM36.55 22L34.13 22L37.84 13.60L40.18 13.60L43.89 22L41.43 22L40.77 20.37L37.22 20.37L36.55 22ZM38.99 15.93L37.91 18.61L40.07 18.61L38.99 15.93ZM47.62 17.80L47.62 17.80Q47.62 16.54 48.22 15.54Q48.82 14.55 49.89 13.99Q50.96 13.43 52.30 13.43L52.30 13.43Q53.48 13.43 54.41 13.83Q55.35 14.22 55.97 14.97L55.97 14.97L54.46 16.33Q53.62 15.40 52.44 15.40L52.44 15.40Q52.43 15.40 52.42 15.40L52.42 15.40Q51.34 15.40 50.68 16.06Q50.02 16.71 50.02 17.80L50.02 17.80Q50.02 18.50 50.32 19.04Q50.62 19.59 51.16 19.89Q51.70 20.20 52.40 20.20L52.40 20.20Q53.08 20.20 53.68 19.93L53.68 19.93L53.68 17.62L55.78 17.62L55.78 21.10Q55.06 21.61 54.12 21.89Q53.19 22.17 52.25 22.17L52.25 22.17Q50.93 22.17 49.87 21.61Q48.82 21.05 48.22 20.05Q47.62 19.06 47.62 17.80ZM63.15 22L60.77 22L60.77 13.60L64.61 13.60Q65.76 13.60 66.59 13.98Q67.43 14.35 67.89 15.06Q68.35 15.76 68.35 16.71L68.35 16.71Q68.35 17.62 67.92 18.30Q67.49 18.98 66.70 19.36L66.70 19.36L68.51 22L65.97 22L64.44 19.77L63.15 19.77L63.15 22ZM63.15 15.47L63.15 17.93L64.47 17.93Q65.20 17.93 65.57 17.61Q65.94 17.29 65.94 16.71L65.94 16.71Q65.94 16.12 65.57 15.79Q65.20 15.47 64.47 15.47L64.47 15.47L63.15 15.47ZM74.55 22L72.13 22L75.83 13.60L78.18 13.60L81.89 22L79.43 22L78.76 20.37L75.21 20.37L74.55 22ZM76.99 15.93L75.90 18.61L78.07 18.61L76.99 15.93ZM88.24 22L86.05 22L86.05 13.60L88.00 13.60L90.96 18.45L93.84 13.60L95.79 13.60L95.81 22L93.64 22L93.61 17.55L91.45 21.17L90.39 21.17L88.24 17.67L88.24 22ZM102.39 22L99.97 22L103.68 13.60L106.02 13.60L109.74 22L107.27 22L106.61 20.37L103.06 20.37L102.39 22ZM104.83 15.93L103.75 18.61L105.91 18.61L104.83 15.93ZM127.61 22L120.86 22L120.86 13.60L127.46 13.60L127.46 15.44L123.22 15.44L123.22 16.85L126.95 16.85L126.95 18.63L123.22 18.63L123.22 20.17L127.61 20.17L127.61 22ZM136.39 22L132.41 22L132.41 13.60L136.39 13.60Q137.77 13.60 138.83 14.12Q139.90 14.63 140.49 15.58Q141.08 16.53 141.08 17.80L141.08 17.80Q141.08 19.07 140.49 20.02Q139.90 20.97 138.83 21.48Q137.77 22 136.39 22L136.39 22ZM134.79 15.50L134.79 20.10L136.29 20.10Q137.37 20.10 138.02 19.49Q138.68 18.88 138.68 17.80L138.68 17.80Q138.68 16.72 138.02 16.11Q137.37 15.50 136.29 15.50L136.29 15.50L134.79 15.50ZM148.19 22L145.81 22L145.81 13.60L149.65 13.60Q150.79 13.60 151.63 13.98Q152.47 14.35 152.93 15.06Q153.38 15.76 153.38 16.71L153.38 16.71Q153.38 17.62 152.96 18.30Q152.53 18.98 151.74 19.36L151.74 19.36L153.55 22L151.00 22L149.48 19.77L148.19 19.77L148.19 22ZM148.19 15.47L148.19 17.93L149.50 17.93Q150.24 17.93 150.61 17.61Q150.98 17.29 150.98 16.71L150.98 16.71Q150.98 16.12 150.61 15.79Q150.24 15.47 149.50 15.47L149.50 15.47L148.19 15.47Z" fill="#9C2236" x="39"/></svg>