<svg xmlns="http://www.w3.org/2000/svg" width="91.97" height="35" viewBox="0 0 91.97 35"><rect class="svg__rect" x="0" y="0" width="0" height="35" fill="#DF7284"/><rect class="svg__rect" x="0" y="0" width="91.97" height="35" fill="#FFFFFF"/><path class="svg__text" d="" fill="#FFFFFF"/><path class="svg__text" d="M16.39 22L14.19 22L14.19 13.60L16.14 13.60L19.10 18.45L21.98 13.60L23.93 13.60L23.96 22L21.78 22L21.75 17.55L19.59 21.17L18.54 21.17L16.39 17.67L16.39 22ZM30.54 22L28.11 22L31.82 13.60L34.16 13.60L37.88 22L35.41 22L34.75 20.37L31.20 20.37L30.54 22ZM32.97 15.93L31.89 18.61L34.05 18.61L32.97 15.93ZM43.82 15.48L41.24 15.48L41.24 13.60L48.76 13.60L48.76 15.48L46.20 15.48L46.20 22L43.82 22L43.82 15.48ZM55.51 22L53.14 22L53.14 13.60L56.98 13.60Q58.12 13.60 58.96 13.98Q59.80 14.35 60.25 15.06Q60.71 15.76 60.71 16.71L60.71 16.71Q60.71 17.62 60.28 18.30Q59.86 18.98 59.06 19.36L59.06 19.36L60.88 22L58.33 22L56.81 19.77L55.51 19.77L55.51 22ZM55.51 15.47L55.51 17.93L56.83 17.93Q57.56 17.93 57.94 17.61Q58.31 17.29 58.31 16.71L58.31 16.71Q58.31 16.12 57.94 15.79Q57.56 15.47 56.83 15.47L56.83 15.47L55.51 15.47ZM67.88 22L65.50 22L65.50 13.60L67.88 13.60L67.88 22ZM80.16 22L72.64 22L72.64 20.51L76.87 15.48L72.74 15.48L72.74 13.60L79.98 13.60L79.98 15.09L75.74 20.11L80.16 20.11L80.16 22Z" fill="#9C2236" x="39"/></svg>