<svg xmlns="http://www.w3.org/2000/svg" width="100.2" height="35" viewBox="0 0 100.2 35"><rect class="svg__rect" x="0" y="0" width="0" height="35" fill="#DF7284"/><rect class="svg__rect" x="0" y="0" width="100.2" height="35" fill="#FFFFFF"/><path class="svg__text" d="" fill="#FFFFFF"/><path class="svg__text" d="M13.60 21.24L13.60 21.24L14.38 19.49Q14.94 19.86 15.69 20.09Q16.43 20.32 17.15 20.32L17.15 20.32Q18.52 20.32 18.52 19.64L18.52 19.64Q18.52 19.28 18.13 19.11Q17.74 18.93 16.88 18.74L16.88 18.74Q15.93 18.53 15.29 18.30Q14.66 18.06 14.20 17.55Q13.75 17.03 13.75 16.16L13.75 16.16Q13.75 15.39 14.17 14.77Q14.59 14.15 15.42 13.79Q16.26 13.43 17.46 13.43L17.46 13.43Q18.29 13.43 19.10 13.62Q19.90 13.80 20.52 14.17L20.52 14.17L19.78 15.93Q18.58 15.28 17.45 15.28L17.45 15.28Q16.74 15.28 16.42 15.49Q16.10 15.70 16.10 16.04L16.10 16.04Q16.10 16.37 16.48 16.54Q16.87 16.71 17.72 16.89L17.72 16.89Q18.68 17.10 19.31 17.33Q19.94 17.56 20.40 18.07Q20.86 18.58 20.86 19.46L20.86 19.46Q20.86 20.21 20.44 20.83Q20.02 21.44 19.18 21.80Q18.34 22.17 17.14 22.17L17.14 22.17Q16.12 22.17 15.16 21.92Q14.20 21.67 13.60 21.24ZM25.01 17.80L25.01 17.80Q25.01 16.54 25.61 15.54Q26.21 14.55 27.26 13.99Q28.31 13.43 29.63 13.43L29.63 13.43Q30.78 13.43 31.70 13.84Q32.63 14.25 33.24 15.02L33.24 15.02L31.73 16.39Q30.92 15.40 29.75 15.40L29.75 15.40Q29.06 15.40 28.53 15.70Q28.00 16 27.70 16.54Q27.41 17.09 27.41 17.80L27.41 17.80Q27.41 18.51 27.70 19.05Q28.00 19.60 28.53 19.90Q29.06 20.20 29.75 20.20L29.75 20.20Q30.92 20.20 31.73 19.22L31.73 19.22L33.24 20.58Q32.63 21.35 31.71 21.76Q30.78 22.17 29.63 22.17L29.63 22.17Q28.31 22.17 27.26 21.61Q26.21 21.05 25.61 20.05Q25.01 19.06 25.01 17.80ZM40.16 22L37.78 22L37.78 13.60L41.62 13.60Q42.76 13.60 43.60 13.98Q44.44 14.35 44.90 15.06Q45.35 15.76 45.35 16.71L45.35 16.71Q45.35 17.62 44.93 18.30Q44.50 18.98 43.71 19.36L43.71 19.36L45.52 22L42.98 22L41.45 19.77L40.16 19.77L40.16 22ZM40.16 15.47L40.16 17.93L41.48 17.93Q42.21 17.93 42.58 17.61Q42.95 17.29 42.95 16.71L42.95 16.71Q42.95 16.12 42.58 15.79Q42.21 15.47 41.48 15.47L41.48 15.47L40.16 15.47ZM52.52 22L50.14 22L50.14 13.60L52.52 13.60L52.52 22ZM60.07 22L57.69 22L57.69 13.60L61.54 13.60Q62.67 13.60 63.52 13.98Q64.36 14.35 64.81 15.06Q65.27 15.76 65.27 16.71L65.27 16.71Q65.27 17.66 64.81 18.35Q64.36 19.05 63.52 19.42Q62.67 19.80 61.54 19.80L61.54 19.80L60.07 19.80L60.07 22ZM60.07 15.47L60.07 17.93L61.39 17.93Q62.12 17.93 62.50 17.61Q62.87 17.29 62.87 16.71L62.87 16.71Q62.87 16.12 62.50 15.80Q62.12 15.47 61.39 15.47L61.39 15.47L60.07 15.47ZM71.81 15.48L69.23 15.48L69.23 13.60L76.75 13.60L76.75 15.48L74.19 15.48L74.19 22L71.81 22L71.81 15.48ZM80.54 21.24L80.54 21.24L81.32 19.49Q81.88 19.86 82.63 20.09Q83.37 20.32 84.09 20.32L84.09 20.32Q85.46 20.32 85.46 19.64L85.46 19.64Q85.46 19.28 85.07 19.11Q84.68 18.93 83.81 18.74L83.81 18.74Q82.87 18.53 82.23 18.30Q81.59 18.06 81.14 17.55Q80.69 17.03 80.69 16.16L80.69 16.16Q80.69 15.39 81.10 14.77Q81.52 14.15 82.36 13.79Q83.19 13.43 84.40 13.43L84.40 13.43Q85.23 13.43 86.03 13.62Q86.84 13.80 87.45 14.17L87.45 14.17L86.72 15.93Q85.52 15.28 84.39 15.28L84.39 15.28Q83.68 15.28 83.36 15.49Q83.04 15.70 83.04 16.04L83.04 16.04Q83.04 16.37 83.42 16.54Q83.80 16.71 84.65 16.89L84.65 16.89Q85.61 17.10 86.24 17.33Q86.87 17.56 87.34 18.07Q87.80 18.58 87.80 19.46L87.80 19.46Q87.80 20.21 87.38 20.83Q86.96 21.44 86.12 21.80Q85.28 22.17 84.08 22.17L84.08 22.17Q83.06 22.17 82.10 21.92Q81.14 21.67 80.54 21.24Z" fill="#9C2236" x="39"/></svg>