<svg xmlns="http://www.w3.org/2000/svg" width="116.98" height="35" viewBox="0 0 116.98 35"><rect class="svg__rect" x="0" y="0" width="116.98" height="35" fill="#DF7284"/><rect class="svg__rect" x="116.98" y="0" width="0" height="35" fill="#389AD5"/><path class="svg__text" d="M16.43 15.15L14.33 15.87L14.33 14.66L17.66 13.44L17.84 13.44L17.84 22L16.43 22L16.43 15.15ZM29.60 22L24.03 22L24.03 13.47L29.56 13.47L29.56 14.66L25.51 14.66L25.51 17.02L29.01 17.02L29.01 18.19L25.51 18.19L25.51 20.82L29.60 20.82L29.60 22ZM35.28 22L33.80 22L33.80 13.47L36.80 13.47Q38.28 13.47 39.08 14.13Q39.88 14.79 39.88 16.05L39.88 16.05Q39.88 16.90 39.47 17.48Q39.06 18.06 38.32 18.37L38.32 18.37L40.23 21.92L40.23 22L38.64 22L36.93 18.71L35.28 18.71L35.28 22ZM35.28 14.66L35.28 17.52L36.81 17.52Q37.56 17.52 37.98 17.15Q38.40 16.77 38.40 16.11L38.40 16.11Q38.40 15.43 38.01 15.05Q37.62 14.68 36.85 14.66L36.85 14.66L35.28 14.66ZM49.82 19.42L49.82 19.42L51.30 19.42Q51.30 20.15 51.78 20.55Q52.26 20.95 53.16 20.95L53.16 20.95Q53.93 20.95 54.32 20.63Q54.71 20.32 54.71 19.80L54.71 19.80Q54.71 19.24 54.32 18.94Q53.92 18.63 52.89 18.32Q51.86 18.01 51.25 17.63L51.25 17.63Q50.08 16.90 50.08 15.72L50.08 15.72Q50.08 14.69 50.92 14.02Q51.76 13.35 53.11 13.35L53.11 13.35Q54.00 13.35 54.69 13.68Q55.39 14.01 55.79 14.61Q56.19 15.22 56.19 15.96L56.19 15.96L54.71 15.96Q54.71 15.29 54.29 14.91Q53.87 14.54 53.09 14.54L53.09 14.54Q52.37 14.54 51.97 14.85Q51.56 15.16 51.56 15.71L51.56 15.71Q51.56 16.18 52.00 16.50Q52.43 16.81 53.43 17.10Q54.42 17.40 55.03 17.78Q55.63 18.16 55.91 18.65Q56.19 19.13 56.19 19.79L56.19 19.79Q56.19 20.86 55.38 21.49Q54.56 22.12 53.16 22.12L53.16 22.12Q52.23 22.12 51.46 21.77Q50.68 21.43 50.25 20.83Q49.82 20.22 49.82 19.42ZM61.97 22L60.48 22L60.48 13.47L63.75 13.47Q65.18 13.47 66.02 14.21Q66.86 14.96 66.86 16.18L66.86 16.18Q66.86 17.44 66.03 18.13Q65.21 18.83 63.73 18.83L63.73 18.83L61.97 18.83L61.97 22ZM61.97 14.66L61.97 17.64L63.75 17.64Q64.54 17.64 64.95 17.27Q65.37 16.90 65.37 16.19L65.37 16.19Q65.37 15.50 64.95 15.09Q64.53 14.68 63.79 14.66L63.79 14.66L61.97 14.66ZM72.62 22L71.14 22L71.14 13.47L74.14 13.47Q75.62 13.47 76.42 14.13Q77.22 14.79 77.22 16.05L77.22 16.05Q77.22 16.90 76.81 17.48Q76.40 18.06 75.66 18.37L75.66 18.37L77.57 21.92L77.57 22L75.99 22L74.28 18.71L72.62 18.71L72.62 22ZM72.62 14.66L72.62 17.52L74.15 17.52Q74.90 17.52 75.32 17.15Q75.74 16.77 75.74 16.11L75.74 16.11Q75.74 15.43 75.35 15.05Q74.96 14.68 74.19 14.66L74.19 14.66L72.62 14.66ZM83.18 22L81.71 22L81.71 13.47L83.18 13.47L83.18 22ZM89.47 22L87.99 22L87.99 13.47L89.47 13.47L93.29 19.54L93.29 13.47L94.76 13.47L94.76 22L93.28 22L89.47 15.95L89.47 22ZM101.18 14.66L98.55 14.66L98.55 13.47L105.31 13.47L105.31 14.66L102.65 14.66L102.65 22L101.18 22L101.18 14.66Z" fill="#FFFFFF"/><path class="svg__text" d="" fill="#FFFFFF" x="129.98000000000002"/></svg>