<svg xmlns="http://www.w3.org/2000/svg" width="119.34" height="35" viewBox="0 0 119.34 35"><rect class="svg__rect" x="0" y="0" width="119.34" height="35" fill="#DF7284"/><rect class="svg__rect" x="119.34" y="0" width="0" height="35" fill="#389AD5"/><path class="svg__text" d="M15.25 16.07L13.82 16.07Q13.82 15.29 14.18 14.67Q14.53 14.04 15.19 13.70Q15.85 13.35 16.71 13.35L16.71 13.35Q17.96 13.35 18.67 13.98Q19.39 14.60 19.39 15.70L19.39 15.70Q19.39 16.34 19.03 17.04Q18.67 17.74 17.85 18.63L17.85 18.63L15.76 20.86L19.73 20.86L19.73 22L13.99 22L13.99 21.02L16.83 17.92Q17.45 17.24 17.71 16.78Q17.97 16.32 17.97 15.85L17.97 15.85Q17.97 15.24 17.62 14.87Q17.28 14.49 16.70 14.49L16.70 14.49Q16.01 14.49 15.63 14.92Q15.25 15.34 15.25 16.07L15.25 16.07ZM26.48 22L24.03 22L24.03 13.47L26.55 13.47Q27.68 13.47 28.55 13.97Q29.43 14.48 29.91 15.40Q30.39 16.33 30.39 17.52L30.39 17.52L30.39 17.95Q30.39 19.16 29.91 20.08Q29.42 21.00 28.53 21.50Q27.64 22 26.48 22L26.48 22ZM25.51 14.66L25.51 20.82L26.48 20.82Q27.64 20.82 28.27 20.09Q28.89 19.36 28.90 17.99L28.90 17.99L28.90 17.52Q28.90 16.13 28.30 15.40Q27.69 14.66 26.55 14.66L26.55 14.66L25.51 14.66ZM34.58 18.00L34.58 18.00L34.58 17.52Q34.58 16.28 35.03 15.32Q35.47 14.37 36.27 13.86Q37.08 13.35 38.12 13.35Q39.17 13.35 39.97 13.85Q40.78 14.35 41.22 15.29Q41.66 16.23 41.66 17.48L41.66 17.48L41.66 17.96Q41.66 19.21 41.23 20.16Q40.80 21.10 39.99 21.61Q39.18 22.12 38.14 22.12L38.14 22.12Q37.10 22.12 36.29 21.61Q35.48 21.10 35.03 20.17Q34.59 19.23 34.58 18.00ZM36.07 17.46L36.07 17.96Q36.07 19.36 36.61 20.13Q37.16 20.90 38.14 20.90L38.14 20.90Q39.12 20.90 39.65 20.15Q40.18 19.40 40.18 17.96L40.18 17.96L40.18 17.51Q40.18 16.09 39.64 15.34Q39.11 14.58 38.12 14.58L38.12 14.58Q37.16 14.58 36.62 15.33Q36.08 16.09 36.07 17.46L36.07 17.46ZM51.67 19.42L51.67 19.42L53.15 19.42Q53.15 20.15 53.63 20.55Q54.11 20.95 55.01 20.95L55.01 20.95Q55.78 20.95 56.17 20.63Q56.56 20.32 56.56 19.80L56.56 19.80Q56.56 19.24 56.17 18.94Q55.77 18.63 54.74 18.32Q53.71 18.01 53.10 17.63L53.10 17.63Q51.93 16.90 51.93 15.72L51.93 15.72Q51.93 14.69 52.77 14.02Q53.62 13.35 54.96 13.35L54.96 13.35Q55.85 13.35 56.55 13.68Q57.24 14.01 57.64 14.61Q58.04 15.22 58.04 15.96L58.04 15.96L56.56 15.96Q56.56 15.29 56.14 14.91Q55.73 14.54 54.95 14.54L54.95 14.54Q54.22 14.54 53.82 14.85Q53.42 15.16 53.42 15.71L53.42 15.71Q53.42 16.18 53.85 16.50Q54.28 16.81 55.28 17.10Q56.28 17.40 56.88 17.78Q57.48 18.16 57.76 18.65Q58.05 19.13 58.05 19.79L58.05 19.79Q58.05 20.86 57.23 21.49Q56.41 22.12 55.01 22.12L55.01 22.12Q54.08 22.12 53.31 21.77Q52.53 21.43 52.10 20.83Q51.67 20.22 51.67 19.42ZM63.82 22L62.33 22L62.33 13.47L65.60 13.47Q67.03 13.47 67.87 14.21Q68.71 14.96 68.71 16.18L68.71 16.18Q68.71 17.44 67.89 18.13Q67.06 18.83 65.58 18.83L65.58 18.83L63.82 18.83L63.82 22ZM63.82 14.66L63.82 17.64L65.60 17.64Q66.39 17.64 66.81 17.27Q67.22 16.90 67.22 16.19L67.22 16.19Q67.22 15.50 66.80 15.09Q66.38 14.68 65.64 14.66L65.64 14.66L63.82 14.66ZM74.47 22L72.99 22L72.99 13.47L75.99 13.47Q77.47 13.47 78.27 14.13Q79.07 14.79 79.07 16.05L79.07 16.05Q79.07 16.90 78.66 17.48Q78.25 18.06 77.51 18.37L77.51 18.37L79.43 21.92L79.43 22L77.84 22L76.13 18.71L74.47 18.71L74.47 22ZM74.47 14.66L74.47 17.52L76.00 17.52Q76.75 17.52 77.17 17.15Q77.59 16.77 77.59 16.11L77.59 16.11Q77.59 15.43 77.20 15.05Q76.81 14.68 76.04 14.66L76.04 14.66L74.47 14.66ZM85.03 22L83.56 22L83.56 13.47L85.03 13.47L85.03 22ZM91.33 22L89.84 22L89.84 13.47L91.33 13.47L95.14 19.54L95.14 13.47L96.61 13.47L96.61 22L95.13 22L91.33 15.95L91.33 22ZM103.03 14.66L100.40 14.66L100.40 13.47L107.16 13.47L107.16 14.66L104.50 14.66L104.50 22L103.03 22L103.03 14.66Z" fill="#FFFFFF"/><path class="svg__text" d="" fill="#FFFFFF" x="132.34"/></svg>